<svg width="74" height="74" viewBox="0 0 74 74" fill="none" xmlns="http://www.w3.org/2000/svg">
<circle cx="37" cy="37" r="37" fill="#F2F6FF"/>
<path d="M27.25 50.375C29.8043 50.375 31.875 48.3043 31.875 45.75C31.875 43.1957 29.8043 41.125 27.25 41.125C24.6957 41.125 22.625 43.1957 22.625 45.75C22.625 48.3043 24.6957 50.375 27.25 50.375Z" fill="#BD1B57"/>
<path opacity="0.3" d="M43.4375 50.375H38.8125C38.8125 41.4349 31.5651 34.1875 22.625 34.1875V29.5625C34.1194 29.5625 43.4375 38.8806 43.4375 50.375Z" fill="#BE1B57"/>
<path opacity="0.3" d="M52.6875 50.375H48.0625C48.0625 36.752 36.248 24.9375 22.625 24.9375V20.3125C38.8023 20.3125 52.6875 34.1977 52.6875 50.375Z" fill="#BE1B57"/>
</svg>
